<mxfile host="Electron" agent="Mozilla/5.0 (X11; Linux x86_64) AppleWebKit/537.36 (KHTML, like Gecko) draw.io/28.0.6 Chrome/138.0.7204.100 Electron/37.2.3 Safari/537.36" version="28.0.6">
  <diagram name="Page-1" id="c7558073-3199-34d8-9f00-42111426c3f3">
    <mxGraphModel dx="1374" dy="848" grid="1" gridSize="10" guides="1" tooltips="1" connect="1" arrows="1" fold="1" page="1" pageScale="1" pageWidth="826" pageHeight="1169" background="none" math="0" shadow="0">
      <root>
        <mxCell id="0" />
        <mxCell id="1" parent="0" />
        <mxCell id="DXtApJ_u5OQ7TNJVLiTd-101" value="ПДн" style="edgeStyle=orthogonalEdgeStyle;rounded=0;orthogonalLoop=1;jettySize=auto;html=1;entryX=0;entryY=0.5;entryDx=0;entryDy=0;" edge="1" parent="1" source="DXtApJ_u5OQ7TNJVLiTd-98" target="DXtApJ_u5OQ7TNJVLiTd-100">
          <mxGeometry relative="1" as="geometry" />
        </mxCell>
        <mxCell id="DXtApJ_u5OQ7TNJVLiTd-120" value="Данные о приёме" style="edgeStyle=orthogonalEdgeStyle;rounded=0;orthogonalLoop=1;jettySize=auto;html=1;curved=1;" edge="1" parent="1" source="DXtApJ_u5OQ7TNJVLiTd-98" target="DXtApJ_u5OQ7TNJVLiTd-119">
          <mxGeometry x="0.3953" y="50" relative="1" as="geometry">
            <Array as="points">
              <mxPoint x="160" y="490" />
            </Array>
            <mxPoint as="offset" />
          </mxGeometry>
        </mxCell>
        <mxCell id="DXtApJ_u5OQ7TNJVLiTd-98" value="Пациент" style="html=1;dashed=0;whiteSpace=wrap;" vertex="1" parent="1">
          <mxGeometry x="110" y="190" width="100" height="50" as="geometry" />
        </mxCell>
        <mxCell id="DXtApJ_u5OQ7TNJVLiTd-103" value="Форма" style="edgeStyle=orthogonalEdgeStyle;rounded=0;orthogonalLoop=1;jettySize=auto;html=1;entryX=0;entryY=0.5;entryDx=0;entryDy=0;" edge="1" parent="1" source="DXtApJ_u5OQ7TNJVLiTd-100" target="DXtApJ_u5OQ7TNJVLiTd-102">
          <mxGeometry relative="1" as="geometry" />
        </mxCell>
        <mxCell id="DXtApJ_u5OQ7TNJVLiTd-100" value="1. Заполнение формы обращения" style="shape=ellipse;html=1;dashed=0;whiteSpace=wrap;perimeter=ellipsePerimeter;" vertex="1" parent="1">
          <mxGeometry x="340" y="155" width="120" height="120" as="geometry" />
        </mxCell>
        <mxCell id="DXtApJ_u5OQ7TNJVLiTd-105" value="Данные пациента" style="edgeStyle=orthogonalEdgeStyle;rounded=0;orthogonalLoop=1;jettySize=auto;html=1;entryX=0;entryY=0.5;entryDx=0;entryDy=0;" edge="1" parent="1" source="DXtApJ_u5OQ7TNJVLiTd-102" target="DXtApJ_u5OQ7TNJVLiTd-104">
          <mxGeometry relative="1" as="geometry" />
        </mxCell>
        <mxCell id="DXtApJ_u5OQ7TNJVLiTd-109" value="Документы" style="edgeStyle=orthogonalEdgeStyle;rounded=0;orthogonalLoop=1;jettySize=auto;html=1;curved=1;" edge="1" parent="1" source="DXtApJ_u5OQ7TNJVLiTd-102" target="DXtApJ_u5OQ7TNJVLiTd-108">
          <mxGeometry x="0.4286" y="10" relative="1" as="geometry">
            <Array as="points">
              <mxPoint x="630" y="350" />
            </Array>
            <mxPoint as="offset" />
          </mxGeometry>
        </mxCell>
        <mxCell id="DXtApJ_u5OQ7TNJVLiTd-112" value="Информация о пациенте" style="edgeStyle=orthogonalEdgeStyle;rounded=0;orthogonalLoop=1;jettySize=auto;html=1;curved=1;" edge="1" parent="1" source="DXtApJ_u5OQ7TNJVLiTd-102" target="DXtApJ_u5OQ7TNJVLiTd-111">
          <mxGeometry x="0.4762" y="40" relative="1" as="geometry">
            <Array as="points">
              <mxPoint x="630" y="490" />
            </Array>
            <mxPoint as="offset" />
          </mxGeometry>
        </mxCell>
        <mxCell id="DXtApJ_u5OQ7TNJVLiTd-116" value="Данные о приёме" style="edgeStyle=orthogonalEdgeStyle;rounded=0;orthogonalLoop=1;jettySize=auto;html=1;curved=1;" edge="1" parent="1" source="DXtApJ_u5OQ7TNJVLiTd-102" target="DXtApJ_u5OQ7TNJVLiTd-115">
          <mxGeometry x="0.2143" y="-20" relative="1" as="geometry">
            <Array as="points">
              <mxPoint x="630" y="350" />
            </Array>
            <mxPoint as="offset" />
          </mxGeometry>
        </mxCell>
        <mxCell id="DXtApJ_u5OQ7TNJVLiTd-102" value="Сотрудник ресепшена" style="html=1;dashed=0;whiteSpace=wrap;" vertex="1" parent="1">
          <mxGeometry x="580" y="190" width="100" height="50" as="geometry" />
        </mxCell>
        <mxCell id="DXtApJ_u5OQ7TNJVLiTd-107" value="Excel-книга" style="edgeStyle=orthogonalEdgeStyle;rounded=0;orthogonalLoop=1;jettySize=auto;html=1;" edge="1" parent="1" source="DXtApJ_u5OQ7TNJVLiTd-104" target="DXtApJ_u5OQ7TNJVLiTd-106">
          <mxGeometry relative="1" as="geometry" />
        </mxCell>
        <mxCell id="DXtApJ_u5OQ7TNJVLiTd-104" value="2. Заполнение формы обращения" style="shape=ellipse;html=1;dashed=0;whiteSpace=wrap;perimeter=ellipsePerimeter;" vertex="1" parent="1">
          <mxGeometry x="800" y="155" width="120" height="120" as="geometry" />
        </mxCell>
        <mxCell id="DXtApJ_u5OQ7TNJVLiTd-106" value="Файловое хранилище" style="html=1;dashed=0;whiteSpace=wrap;shape=partialRectangle;right=0;" vertex="1" parent="1">
          <mxGeometry x="1080" y="200" width="100" height="30" as="geometry" />
        </mxCell>
        <mxCell id="DXtApJ_u5OQ7TNJVLiTd-110" value="Сканы в формате&amp;nbsp;&lt;div&gt;PDF/JPG&lt;/div&gt;" style="edgeStyle=orthogonalEdgeStyle;rounded=0;orthogonalLoop=1;jettySize=auto;html=1;curved=1;" edge="1" parent="1" source="DXtApJ_u5OQ7TNJVLiTd-108" target="DXtApJ_u5OQ7TNJVLiTd-106">
          <mxGeometry x="-0.3939" y="10" relative="1" as="geometry">
            <mxPoint as="offset" />
          </mxGeometry>
        </mxCell>
        <mxCell id="DXtApJ_u5OQ7TNJVLiTd-108" value="3. Сканирование документов" style="shape=ellipse;html=1;dashed=0;whiteSpace=wrap;perimeter=ellipsePerimeter;" vertex="1" parent="1">
          <mxGeometry x="800" y="290" width="120" height="120" as="geometry" />
        </mxCell>
        <mxCell id="DXtApJ_u5OQ7TNJVLiTd-113" value="Excel-книга" style="edgeStyle=orthogonalEdgeStyle;rounded=0;orthogonalLoop=1;jettySize=auto;html=1;curved=1;" edge="1" parent="1" source="DXtApJ_u5OQ7TNJVLiTd-111" target="DXtApJ_u5OQ7TNJVLiTd-106">
          <mxGeometry x="-0.4894" y="30" relative="1" as="geometry">
            <mxPoint as="offset" />
          </mxGeometry>
        </mxCell>
        <mxCell id="DXtApJ_u5OQ7TNJVLiTd-111" value="4. Обновление журнала приёма" style="shape=ellipse;html=1;dashed=0;whiteSpace=wrap;perimeter=ellipsePerimeter;" vertex="1" parent="1">
          <mxGeometry x="800" y="430" width="120" height="120" as="geometry" />
        </mxCell>
        <mxCell id="DXtApJ_u5OQ7TNJVLiTd-117" value="Данные о приёме" style="edgeStyle=orthogonalEdgeStyle;rounded=0;orthogonalLoop=1;jettySize=auto;html=1;entryX=0.5;entryY=1;entryDx=0;entryDy=0;curved=1;" edge="1" parent="1" source="DXtApJ_u5OQ7TNJVLiTd-115" target="DXtApJ_u5OQ7TNJVLiTd-98">
          <mxGeometry x="-0.3103" y="-10" relative="1" as="geometry">
            <mxPoint as="offset" />
          </mxGeometry>
        </mxCell>
        <mxCell id="DXtApJ_u5OQ7TNJVLiTd-115" value="5. Подтверждение записи" style="shape=ellipse;html=1;dashed=0;whiteSpace=wrap;perimeter=ellipsePerimeter;" vertex="1" parent="1">
          <mxGeometry x="340" y="290" width="120" height="120" as="geometry" />
        </mxCell>
        <mxCell id="DXtApJ_u5OQ7TNJVLiTd-119" value="dfd-payment" style="shape=ellipse;html=1;dashed=0;whiteSpace=wrap;perimeter=ellipsePerimeter;fillColor=#d5e8d4;strokeColor=#82b366;" vertex="1" parent="1">
          <mxGeometry x="340" y="430" width="120" height="120" as="geometry" />
        </mxCell>
      </root>
    </mxGraphModel>
  </diagram>
</mxfile>
